<svg width="133" height="133" viewBox="0 0 133 133" fill="none" xmlns="http://www.w3.org/2000/svg">
<path d="M66 66H132.029V116.182C132.029 124.934 124.934 132.029 116.182 132.029H66V66Z" fill="#F2B200"/>
<path d="M66.0287 0H116.207C124.961 0 132.057 7.09629 132.057 15.85V66.0287H66.0287V0Z" fill="#25231D"/>
<path d="M82.6948 94.6185V87.2174H114.575V94.6185H82.6948ZM82.6948 109.948V102.547H114.575V109.948H82.6948Z" fill="#25231D"/>
<path d="M0 15.8469C0 7.0949 7.09489 0 15.8469 0H66.0287V66.0287H0V15.8469Z" fill="#E6DAAD"/>
<path d="M29.4418 48.9983V17.1183H36.6747V48.9983H29.4418ZM17.1182 36.6747V29.4418H48.9982V36.6747H17.1182Z" fill="#25231D"/>
<path d="M0 66.0287H66.0287V132.057H15.85C7.09629 132.057 0 124.961 0 116.207V66.0287Z" fill="#25231D"/>
<path d="M39.7749 83.0574V115.785H33.8462V88.8262H33.6545L26 93.7161V88.2829L34.1339 83.0574H39.7749Z" fill="#E6DAAD"/>
<path d="M88.2492 49.1747V44.892L99.6111 33.7539C100.698 32.6566 101.603 31.6818 102.328 30.8295C103.052 29.9773 103.595 29.1516 103.958 28.3526C104.32 27.5536 104.501 26.7014 104.501 25.7958C104.501 24.7624 104.267 23.8782 103.798 23.1431C103.329 22.3974 102.685 21.8221 101.864 21.4173C101.044 21.0124 100.112 20.81 99.0677 20.81C97.9917 20.81 97.0489 21.0337 96.2393 21.4812C95.4296 21.918 94.801 22.5412 94.3536 23.3509C93.9168 24.1605 93.6984 25.1246 93.6984 26.2433H88.0574C88.0574 24.1658 88.5315 22.3601 89.4797 20.826C90.4278 19.2919 91.7329 18.104 93.3948 17.2624C95.0674 16.4208 96.985 16 99.1476 16C101.342 16 103.271 16.4102 104.932 17.2305C106.594 18.0508 107.883 19.1747 108.8 20.6023C109.726 22.0298 110.19 23.6598 110.19 25.4922C110.19 26.7173 109.956 27.9212 109.487 29.1037C109.018 30.2862 108.192 31.5966 107.01 33.0348C105.838 34.473 104.192 36.2148 102.072 38.2603L96.431 43.9972V44.2209H110.685V49.1747H88.2492Z" fill="#E6DAAD"/>
</svg>
