<svg width="21" height="22" viewBox="0 0 21 22" fill="none" xmlns="http://www.w3.org/2000/svg">
<path d="M2.27463 18.8016H3.90157L15.0618 7.64133L13.4349 6.0144L2.27463 17.1746V18.8016ZM-0.00878906 21.085V16.2327L15.0618 1.19066C15.2901 0.98135 15.5423 0.819608 15.8182 0.705436C16.0941 0.591265 16.3843 0.53418 16.6887 0.53418C16.9932 0.53418 17.2881 0.591265 17.5736 0.705436C17.859 0.819608 18.1064 0.990864 18.3157 1.21921L19.8855 2.8176C20.1139 3.02692 20.2804 3.27429 20.385 3.55972C20.4897 3.84514 20.542 4.13057 20.542 4.416C20.542 4.72046 20.4897 5.01064 20.385 5.28655C20.2804 5.56247 20.1139 5.8146 19.8855 6.04294L4.84349 21.085H-0.00878906ZM14.2341 6.84214L13.4349 6.0144L15.0618 7.64133L14.2341 6.84214Z" fill="#E6DAB7" fill-opacity="0.35"/>
</svg>
