<svg width="22" height="22" viewBox="0 0 22 22" fill="none" xmlns="http://www.w3.org/2000/svg">
<path d="M21.4453 5.25728V18.9578C21.4453 19.5858 21.2218 20.1233 20.7746 20.5705C20.3274 21.0177 19.7899 21.2412 19.1619 21.2412H3.17795C2.55001 21.2412 2.01246 21.0177 1.56529 20.5705C1.11812 20.1233 0.894531 19.5858 0.894531 18.9578V2.97385C0.894531 2.34591 1.11812 1.80836 1.56529 1.36119C2.01246 0.914015 2.55001 0.69043 3.17795 0.69043H16.8785L21.4453 5.25728ZM19.1619 6.22773L15.908 2.97385H3.17795V18.9578H19.1619V6.22773ZM11.1699 17.8161C12.1214 17.8161 12.9301 17.4831 13.5961 16.8171C14.2621 16.1511 14.5951 15.3424 14.5951 14.391C14.5951 13.4395 14.2621 12.6308 13.5961 11.9648C12.9301 11.2988 12.1214 10.9658 11.1699 10.9658C10.2185 10.9658 9.4098 11.2988 8.7438 11.9648C8.0778 12.6308 7.7448 13.4395 7.7448 14.391C7.7448 15.3424 8.0778 16.1511 8.7438 16.8171C9.4098 17.4831 10.2185 17.8161 11.1699 17.8161ZM4.31967 8.68241H14.5951V4.11556H4.31967V8.68241ZM3.17795 6.22773V18.9578V2.97385V6.22773Z" fill="#F2B200" fill-opacity="0.8"/>
</svg>
